<svg width="960" height="520" viewBox="0 0 960 520" fill="none" xmlns="http://www.w3.org/2000/svg">
  <rect width="960" height="520" rx="40" fill="#D9E6FF"/>
  <circle cx="122" cy="104" r="28" fill="#FFF0A6"/>
  <circle cx="832" cy="110" r="22" fill="#FFD5E2"/>
  <circle cx="720" cy="86" r="12" fill="#FFF6D6"/>
  <circle cx="316" cy="210" r="64" fill="#FFCCAA"/>
  <circle cx="480" cy="184" r="74" fill="#FFDABA"/>
  <circle cx="650" cy="216" r="60" fill="#F4C9B0"/>
  <path d="M238 406C238 344.144 288.144 294 350 294H352C413.856 294 464 344.144 464 406V432H238V406Z" fill="#5E7CE2"/>
  <path d="M366 424C366 347.216 428.216 285 505 285H511C587.784 285 650 347.216 650 424V442H366V424Z" fill="#F29A72"/>
  <path d="M564 410C564 353.667 609.667 308 666 308H674C730.333 308 776 353.667 776 410V432H564V410Z" fill="#77BFA3"/>
  <circle cx="292" cy="208" r="8" fill="#3A2D2A"/>
  <circle cx="340" cy="208" r="8" fill="#3A2D2A"/>
  <path d="M292 236C302 248 330 248 340 236" stroke="#3A2D2A" stroke-width="6" stroke-linecap="round"/>
  <circle cx="452" cy="182" r="8" fill="#3A2D2A"/>
  <circle cx="506" cy="182" r="8" fill="#3A2D2A"/>
  <path d="M450 214C462 228 496 228 508 214" stroke="#3A2D2A" stroke-width="6" stroke-linecap="round"/>
  <circle cx="628" cy="214" r="8" fill="#3A2D2A"/>
  <circle cx="672" cy="214" r="8" fill="#3A2D2A"/>
  <path d="M628 242C638 254 662 254 672 242" stroke="#3A2D2A" stroke-width="6" stroke-linecap="round"/>
  <path d="M422 120C440 90 478 78 512 90" stroke="#6A4E44" stroke-width="18" stroke-linecap="round"/>
  <path d="M270 166C286 140 318 130 348 144" stroke="#69473F" stroke-width="16" stroke-linecap="round"/>
  <path d="M604 168C626 142 662 136 694 152" stroke="#5D4B41" stroke-width="16" stroke-linecap="round"/>
</svg>
